<svg width="86" height="82" viewBox="0 0 86 82" fill="none" xmlns="http://www.w3.org/2000/svg">
<path d="M66.621 4.22688C63.9949 4.79606 61.9643 6.52396 61.0333 8.98727C60.6923 9.90553 60.5963 11.6789 60.8354 12.6405C61.8485 16.6082 66.1449 19.0939 70.2389 18.0706C71.5097 17.7482 72.4082 17.287 73.4434 16.4063C76.5351 13.7873 76.7335 9.42271 73.8823 6.43437C72.4929 4.97181 70.7742 4.2147 68.6018 4.12074C67.8444 4.07971 67.1077 4.12281 66.621 4.22688Z" fill="white"/>
<path d="M41.5663 4.22248C38.9402 4.79167 36.9096 6.51956 35.9786 8.98288C35.6377 9.90114 35.5416 11.6745 35.7807 12.6361C36.7938 16.6039 41.0902 19.0895 45.1842 18.0662C46.455 17.7438 47.3535 17.2826 48.3887 16.4019C51.4804 13.7829 51.6788 9.41832 48.8276 6.42998C47.4383 4.96742 45.7195 4.21031 43.5471 4.11634C42.7897 4.07532 42.0531 4.11842 41.5663 4.22248Z" fill="white"/>
<path d="M16.5116 4.21785C13.8854 4.78703 11.8548 6.51492 10.9238 8.97824C10.5829 9.8965 10.4868 11.6699 10.7259 12.6314C11.739 16.5992 16.0354 19.0848 20.1294 18.0616C21.4003 17.7391 22.2988 17.2779 23.334 16.3973C26.4256 13.7783 26.6241 9.41368 23.7728 6.42534C22.3835 4.96278 20.6648 4.20567 18.4923 4.11171C17.7349 4.07068 16.9983 4.11378 16.5116 4.21785Z" fill="white"/>
<path d="M16.5116 4.21785C13.8854 4.78703 11.8548 6.51492 10.9238 8.97824C10.5829 9.8965 10.4868 11.6699 10.7259 12.6314C11.739 16.5992 16.0354 19.0848 20.1294 18.0616C21.4003 17.7391 22.2988 17.2779 23.334 16.3973C26.4256 13.7783 26.6241 9.41368 23.7728 6.42534C22.3835 4.96278 20.6648 4.20567 18.4923 4.11171C17.7349 4.07068 16.9983 4.11378 16.5116 4.21785Z" fill="white"/>
<path d="M9.32364 25.2322L9.31103 25.2336C9.16753 25.2499 9.05747 25.2954 9.03598 25.3042L9.03379 25.3051C8.99407 25.3213 8.96101 25.3374 8.94055 25.3477C8.89822 25.369 8.85672 25.3924 8.82286 25.412C8.75253 25.4528 8.66596 25.506 8.57112 25.5658C8.37904 25.6869 8.12058 25.8552 7.82203 26.0526C7.2233 26.4485 6.44473 26.9739 5.67328 27.501C4.90192 28.0281 4.13341 28.5598 3.55504 28.9687C3.26685 29.1724 3.02051 29.3494 2.84324 29.4814C2.75623 29.5461 2.67619 29.6072 2.61351 29.6584C2.58438 29.6821 2.5435 29.7163 2.50358 29.7543C2.48554 29.7716 2.44824 29.8079 2.40819 29.8565C2.38854 29.8804 2.3531 29.9253 2.31684 29.9863C2.29124 30.0294 2.20759 30.1731 2.1824 30.3797L2.19659 30.3814C2.18531 30.5147 2.18717 30.6501 2.19712 30.7099C2.2097 30.762 2.23632 30.8457 2.24873 30.8778C2.27261 30.9366 2.29696 30.9801 2.30524 30.9947C2.3253 31.0302 2.34356 31.0573 2.34921 31.0657C2.36411 31.0879 2.37832 31.1072 2.38578 31.1173C2.40318 31.1409 2.42459 31.1689 2.4467 31.1975C2.49235 31.2565 2.55802 31.34 2.64104 31.4448C2.80784 31.6553 3.05306 31.9622 3.36738 32.3541C3.99643 33.1385 4.90651 34.2683 6.02924 35.6593C8.27491 38.4414 11.3734 42.2707 14.7807 46.475L14.7808 46.4751C18.1911 50.6823 21.2899 54.5196 23.5365 57.3123C24.6599 58.7088 25.5695 59.8432 26.1982 60.6319C26.3275 60.7941 26.4447 60.9414 26.5493 61.0732C26.2218 61.3107 25.8031 61.611 25.3104 61.9618C24.0347 62.8704 22.2729 64.1106 20.3356 65.4609L9.32364 25.2322ZM9.32364 25.2322L9.33628 25.2311M9.32364 25.2322L9.33628 25.2311M9.33628 25.2311C9.38348 25.2269 9.4882 25.2252 9.56901 25.2239L9.5986 25.2234C9.71998 25.2213 9.89658 25.2185 10.1252 25.215C10.5825 25.208 11.25 25.1982 12.1048 25.186C13.8144 25.1616 16.2739 25.1274 19.3007 25.0856C25.3541 25.0021 33.6769 24.8887 42.8073 24.7643C51.6414 24.644 59.7118 24.5352 65.6972 24.4546L66.2923 24.4466C69.3123 24.4059 71.7637 24.3729 73.4641 24.3497C74.1574 24.3403 74.7179 24.3326 75.1397 24.3268C75.7713 24.3181 76.092 24.3136 76.0828 24.3142L76.1048 24.3129M9.33628 25.2311L76.1048 24.3129M42.6569 64.0939C43.224 64.7983 44.3947 66.2482 45.661 67.8113L45.6624 67.8131C46.4942 68.8447 47.2502 69.7901 47.7978 70.4823C48.0712 70.8279 48.2947 71.113 48.4503 71.3149C48.5273 71.415 48.5917 71.4998 48.6382 71.5631C48.6601 71.5931 48.6855 71.6283 48.7078 71.6617C48.7171 71.6757 48.7382 71.7076 48.7601 71.7468C48.7694 71.7634 48.7943 71.8086 48.8184 71.869C48.83 71.898 48.8529 71.9588 48.8694 72.039C48.8798 72.0895 48.9233 72.3006 48.8401 72.5539L48.8177 72.6223L48.7857 72.6867C48.7161 72.8268 48.6265 72.9192 48.6169 72.9291L48.6161 72.9299C48.5898 72.9579 48.567 72.9789 48.5557 72.9891C48.5317 73.0109 48.5099 73.0287 48.4981 73.0383C48.4719 73.0595 48.4428 73.0817 48.4166 73.1014C48.3619 73.1426 48.2878 73.1968 48.1997 73.2603C48.0222 73.3885 47.7705 73.5674 47.4647 73.7831C46.8526 74.215 46.0144 74.8011 45.0971 75.4386C44.1797 76.0799 43.3302 76.6719 42.7007 77.1104L42.5552 77.2118C42.3054 77.3859 42.0969 77.5311 41.9407 77.6401L41.7213 77.7934C41.6838 77.8196 41.6623 77.8348 41.6522 77.8419C41.6482 77.8448 41.6459 77.8463 41.6453 77.8468C41.645 77.847 41.645 77.847 41.6454 77.8467L41.0516 77.0421L42.6569 64.0939ZM42.6569 64.0939L62.9734 49.9816L62.9735 49.9816C68.804 45.9305 74.1048 42.2412 77.9474 39.5616C79.8685 38.2219 81.4256 37.1344 82.5022 36.3801C83.0403 36.0031 83.4593 35.7087 83.744 35.5075C83.886 35.4072 83.9964 35.3287 84.072 35.2744C84.1092 35.2477 84.1416 35.2242 84.1662 35.2059C84.1773 35.1977 84.194 35.1852 84.2108 35.1719C84.217 35.1671 84.2372 35.1511 84.2608 35.1301L84.261 35.1299C84.2697 35.1222 84.302 35.0934 84.3387 35.0528C84.3602 35.0282 84.4151 34.9572 84.4467 34.9095C84.502 34.8072 84.5916 34.4192 84.5589 34.1229L84.563 34.1218C84.5606 34.1127 84.5581 34.1038 84.5555 34.0951L42.6569 64.0939ZM76.1048 24.3129L76.1269 24.3125M76.1048 24.3129L76.1269 24.3125M76.1269 24.3125C76.3271 24.309 76.4759 24.367 76.5303 24.3896M76.1269 24.3125L76.5303 24.3896M12.8561 71.3912C12.8657 71.5113 12.8946 71.6009 12.9064 71.6359C12.9236 71.6871 12.9416 71.7274 12.953 71.7516C12.9758 71.7999 12.9986 71.8393 13.012 71.8617C13.0405 71.9093 13.072 71.9561 13.0984 71.9942C13.1536 72.0738 13.2269 72.1735 13.3105 72.2843C13.4796 72.5086 13.7167 72.813 13.9961 73.1664C14.5563 73.8748 15.3014 74.7991 16.0482 75.7145C16.7949 76.6299 17.5465 77.5404 18.1195 78.2212C18.4053 78.5606 18.6508 78.8479 18.8305 79.0514C18.9189 79.1514 18.9997 79.2407 19.0649 79.3081C19.0947 79.339 19.1376 79.3823 19.1841 79.423C19.2034 79.44 19.2524 79.4822 19.3182 79.5247C19.3486 79.5442 19.4195 79.5882 19.5178 79.6247L19.5183 79.6249C19.5752 79.646 19.8503 79.7481 20.1852 79.6363C20.2283 79.622 20.2581 79.609 20.2683 79.6046L20.2696 79.604C20.2987 79.5914 20.3216 79.5798 20.3338 79.5735C20.359 79.5604 20.3796 79.5485 20.3901 79.5424C20.413 79.5289 20.4354 79.5149 20.4526 79.5039C20.4891 79.4808 20.5353 79.4504 20.5876 79.4157C20.6937 79.3453 20.8433 79.2443 21.0298 79.1174C21.4036 78.863 21.9356 78.4978 22.5856 78.0495C23.8861 77.1525 25.6639 75.9193 27.6042 74.5668C29.547 73.2158 31.3164 71.9875 32.6021 71.0961C33.1472 70.7182 33.6052 70.4009 33.9526 70.1607L12.8561 71.3912ZM12.8561 71.3912C12.8356 71.134 12.9204 70.9441 12.9478 70.8857M12.8561 71.3912L12.9478 70.8857M12.9478 70.8857C12.9849 70.8063 13.0247 70.7487 13.0454 70.7201M12.9478 70.8857L13.0454 70.7201M13.0454 70.7201C13.088 70.6614 13.1283 70.6193 13.1443 70.6028M13.0454 70.7201L13.1443 70.6028M13.1443 70.6028C13.1816 70.5644 13.2171 70.5333 13.236 70.5171M13.1443 70.6028L13.236 70.5171M13.236 70.5171C13.279 70.4801 13.3303 70.4393 13.3805 70.4002M13.236 70.5171L13.3805 70.4002M13.3805 70.4002C13.4847 70.3191 13.6314 70.2092 13.8113 70.0768M13.3805 70.4002L13.8113 70.0768M13.8113 70.0768C14.1734 69.8103 14.6941 69.4348 15.3335 68.9786M13.8113 70.0768L15.3335 68.9786M15.3335 68.9786C16.6135 68.0657 18.3813 66.8212 20.3353 65.4611L15.3335 68.9786ZM76.5303 24.3896C76.5991 24.4183 76.6507 24.4489 76.6787 24.4664M76.5303 24.3896L76.6787 24.4664M76.6787 24.4664C76.7349 24.5016 76.7761 24.5352 76.7935 24.5497M76.6787 24.4664L76.7935 24.5497M76.7935 24.5497C76.8324 24.582 76.8635 24.6125 76.8789 24.6278M76.7935 24.5497L76.8789 24.6278M76.8789 24.6278C76.8863 24.6351 76.8938 24.6426 76.9013 24.6503M76.8789 24.6278L76.9013 24.6503M76.9013 24.6503C76.9295 24.6792 76.958 24.7101 76.984 24.7385M76.9013 24.6503L76.984 24.7385M76.984 24.7385C77.0527 24.814 77.1437 24.9178 77.2502 25.0413M76.984 24.7385L77.2502 25.0413M77.2502 25.0413C77.4648 25.2903 77.7626 25.6428 78.1135 26.062M77.2502 25.0413L78.1135 26.062M78.1135 26.062C78.8162 26.9017 79.7423 28.0215 80.6654 29.1455M78.1135 26.062L80.6654 29.1455M80.6654 29.1455C81.5886 30.2696 82.5108 31.4003 83.206 32.262M80.6654 29.1455L83.206 32.262M83.206 32.262C83.5532 32.6923 83.8458 33.0582 84.0541 33.3233M83.206 32.262L84.0541 33.3233M84.0541 33.3233C84.1577 33.4551 84.2442 33.5667 84.3071 33.6507M84.0541 33.3233L84.3071 33.6507M84.3071 33.6507C84.3378 33.6917 84.3686 33.7336 84.3947 33.7713M84.3071 33.6507L84.3947 33.7713M84.3947 33.7713C84.4071 33.7893 84.4254 33.8162 84.4441 33.8469M84.3947 33.7713L84.4441 33.8469M84.4441 33.8469C84.4532 33.862 84.4683 33.8874 84.4846 33.9191M84.4441 33.8469L84.4846 33.9191M84.4846 33.9191L84.485 33.9199M84.4846 33.9191L84.485 33.9199M84.485 33.9199C84.4944 33.9382 84.5282 34.004 84.5554 34.095L84.485 33.9199ZM19.6991 35.2968C19.5953 35.2994 19.4948 35.302 19.3976 35.3045C19.8176 35.8378 20.3354 36.4902 20.9263 37.2313C22.5917 39.3198 24.8305 42.1031 27.0807 44.8863C29.331 47.6694 31.5913 50.4506 33.2996 52.535C34.1541 53.5776 34.8687 54.4437 35.3744 55.0479C35.4581 55.148 35.5358 55.2404 35.6071 55.325C35.8031 55.1908 36.0364 55.0308 36.3038 54.847C37.2045 54.228 38.4887 53.3425 40.0317 52.2769C43.1174 50.1459 47.236 47.296 51.3872 44.4201C57.1196 40.4488 62.8951 36.441 66.109 34.2017C64.7133 34.232 62.8584 34.2736 60.6871 34.3231C55.8551 34.4332 49.4571 34.5822 43.0684 34.7329C36.6797 34.8836 30.3004 35.036 25.5055 35.1528C23.108 35.2113 21.107 35.2608 19.6991 35.2968Z" fill="white" stroke="white" stroke-width="2"/>
</svg>
